# xmcd CD database file
#
# Track frame offsets:
#	150
#	13606
#	29015
#	49974
#	67831
#	79688
#	98997
#	118305
#	130013
#	147612
#	172051
#	185884
#
# Disc length: 2801 seconds
#
# Revision: 0
# Processed by: cddbd v1.5.2PL0 Copyright (c) Steve Scherf et al.
# Submitted via: CDex 1.50
#
DISCID=b30aef0c
DTITLE=Naomi and Goro - HOME
DYEAR=1900
DGENRE=Jazz
TTITLE0=Will you dance ?
TTITLE1=Goodbye
TTITLE2=Les copains d'abord
TTITLE3=Me. japanese boy i love you
TTITLE4=Em ecountant la pluie
TTITLE5=Top of the world
TTITLE6=Beuty and the beast
TTITLE7=Estrada branca
TTITLE8=Over the rainbow
TTITLE9=Home Sweet Home
TTITLE10=Vagamente
TTITLE11=Aguas de marco
EXTD=
EXTT0=
EXTT1=
EXTT2=
EXTT3=
EXTT4=
EXTT5=
EXTT6=
EXTT7=
EXTT8=
EXTT9=
EXTT10=
EXTT11=
PLAYORDER=
